<svg width="100" height="48" viewBox="0 0 100 48" fill="none" xmlns="http://www.w3.org/2000/svg">
<g filter="url(#filter0_di_0_4)">
<mask id="path-1-inside-1_0_4" fill="white">
<path d="M4 12C4 6.47715 8.47715 2 14 2H34C39.5228 2 44 6.47715 44 12V32C44 37.5228 39.5228 42 34 42H14C8.47715 42 4 37.5228 4 32V12Z"/>
</mask>
<path d="M4 12C4 6.47715 8.47715 2 14 2H34C39.5228 2 44 6.47715 44 12V32C44 37.5228 39.5228 42 34 42H14C8.47715 42 4 37.5228 4 32V12Z" fill="white"/>
<path d="M14 2V3H34V2V1H14V2ZM44 12H43V32H44H45V12H44ZM34 42V41H14V42V43H34V42ZM4 32H5V12H4H3V32H4ZM14 42V41C9.02944 41 5 36.9706 5 32H4H3C3 38.0751 7.92487 43 14 43V42ZM44 32H43C43 36.9706 38.9706 41 34 41V42V43C40.0751 43 45 38.0751 45 32H44ZM34 2V3C38.9706 3 43 7.02944 43 12H44H45C45 5.92487 40.0751 1 34 1V2ZM14 2V1C7.92487 1 3 5.92487 3 12H4H5C5 7.02944 9.02944 3 14 3V2Z" fill="#E0E2E7" mask="url(#path-1-inside-1_0_4)"/>
<path d="M28.1667 17.8334H19.8334C19.6124 17.8334 19.4004 17.9212 19.2442 18.0774C19.0879 18.2337 19.0001 18.4457 19.0001 18.6667C19.0001 18.8877 19.0879 19.0997 19.2442 19.2559C19.4004 19.4122 19.6124 19.5 19.8334 19.5H28.1667C28.3878 19.5 28.5997 19.4122 28.756 19.2559C28.9123 19.0997 29.0001 18.8877 29.0001 18.6667C29.0001 18.4457 28.9123 18.2337 28.756 18.0774C28.5997 17.9212 28.3878 17.8334 28.1667 17.8334ZM28.1667 21.1667H19.8334C19.6124 21.1667 19.4004 21.2545 19.2442 21.4108C19.0879 21.567 19.0001 21.779 19.0001 22C19.0001 22.221 19.0879 22.433 19.2442 22.5893C19.4004 22.7456 19.6124 22.8334 19.8334 22.8334H28.1667C28.3878 22.8334 28.5997 22.7456 28.756 22.5893C28.9123 22.433 29.0001 22.221 29.0001 22C29.0001 21.779 28.9123 21.567 28.756 21.4108C28.5997 21.2545 28.3878 21.1667 28.1667 21.1667ZM29.8334 13.6667H18.1667C17.5037 13.6667 16.8678 13.9301 16.399 14.3989C15.9301 14.8678 15.6667 15.5036 15.6667 16.1667V24.5C15.6667 25.1631 15.9301 25.7989 16.399 26.2678C16.8678 26.7366 17.5037 27 18.1667 27H27.8251L30.9084 30.0917C30.9863 30.1689 31.0786 30.23 31.1802 30.2715C31.2817 30.313 31.3904 30.334 31.5001 30.3334C31.6094 30.3362 31.7178 30.3133 31.8167 30.2667C31.9689 30.2042 32.0992 30.098 32.1911 29.9616C32.2831 29.8251 32.3326 29.6645 32.3334 29.5V16.1667C32.3334 15.5036 32.07 14.8678 31.6012 14.3989C31.1323 13.9301 30.4965 13.6667 29.8334 13.6667ZM30.6667 27.4917L28.7584 25.575C28.6805 25.4978 28.5882 25.4367 28.4867 25.3952C28.3851 25.3537 28.2764 25.3327 28.1667 25.3334H18.1667C17.9457 25.3334 17.7338 25.2456 17.5775 25.0893C17.4212 24.933 17.3334 24.721 17.3334 24.5V16.1667C17.3334 15.9457 17.4212 15.7337 17.5775 15.5774C17.7338 15.4212 17.9457 15.3334 18.1667 15.3334H29.8334C30.0544 15.3334 30.2664 15.4212 30.4227 15.5774C30.579 15.7337 30.6667 15.9457 30.6667 16.1667V27.4917Z" fill="#1B1D23"/>
</g>
<g filter="url(#filter1_di_0_4)">
<mask id="path-4-inside-2_0_4" fill="white">
<path d="M56 12C56 6.47715 60.4772 2 66 2H86C91.5228 2 96 6.47715 96 12V32C96 37.5228 91.5228 42 86 42H66C60.4772 42 56 37.5228 56 32V12Z"/>
</mask>
<path d="M56 12C56 6.47715 60.4772 2 66 2H86C91.5228 2 96 6.47715 96 12V32C96 37.5228 91.5228 42 86 42H66C60.4772 42 56 37.5228 56 32V12Z" fill="white"/>
<path d="M66 2V3H86V2V1H66V2ZM96 12H95V32H96H97V12H96ZM86 42V41H66V42V43H86V42ZM56 32H57V12H56H55V32H56ZM66 42V41C61.0294 41 57 36.9706 57 32H56H55C55 38.0751 59.9249 43 66 43V42ZM96 32H95C95 36.9706 90.9706 41 86 41V42V43C92.0751 43 97 38.0751 97 32H96ZM86 2V3C90.9706 3 95 7.02944 95 12H96H97C97 5.92487 92.0751 1 86 1V2ZM66 2V1C59.9249 1 55 5.92487 55 12H56H57C57 7.02944 61.0294 3 66 3V2Z" fill="#E0E2E7" mask="url(#path-4-inside-2_0_4)"/>
<path d="M81.7011 23.2075V20.0196C81.6997 18.5993 81.1956 17.2253 80.2783 16.1409C79.3609 15.0566 78.0893 14.3319 76.6889 14.0951V13.0025C76.6889 12.7366 76.5832 12.4816 76.3952 12.2936C76.2072 12.1056 75.9523 12 75.6864 12C75.4205 12 75.1656 12.1056 74.9776 12.2936C74.7896 12.4816 74.6839 12.7366 74.6839 13.0025V14.0951C73.2834 14.3319 72.0119 15.0566 71.0945 16.1409C70.1771 17.2253 69.6731 18.5993 69.6717 20.0196V23.2075C69.0867 23.4143 68.58 23.797 68.221 24.3031C67.8621 24.8092 67.6685 25.4139 67.6667 26.0344V28.0393C67.6667 28.3052 67.7724 28.5601 67.9604 28.7481C68.1484 28.9361 68.4033 29.0418 68.6692 29.0418H71.8169C72.0478 29.8912 72.5517 30.6411 73.251 31.1757C73.9503 31.7103 74.8061 32 75.6864 32C76.5667 32 77.4225 31.7103 78.1218 31.1757C78.8211 30.6411 79.325 29.8912 79.5559 29.0418H82.7036C82.9695 29.0418 83.2244 28.9361 83.4124 28.7481C83.6004 28.5601 83.706 28.3052 83.706 28.0393V26.0344C83.7043 25.4139 83.5107 24.8092 83.1517 24.3031C82.7928 23.797 82.2861 23.4143 81.7011 23.2075ZM71.6766 20.0196C71.6766 18.9562 72.099 17.9363 72.851 17.1843C73.603 16.4323 74.6229 16.0098 75.6864 16.0098C76.7499 16.0098 77.7698 16.4323 78.5218 17.1843C79.2738 17.9363 79.6962 18.9562 79.6962 20.0196V23.027H71.6766V20.0196ZM75.6864 30.0442C75.3365 30.0421 74.9933 29.9485 74.6908 29.7726C74.3883 29.5967 74.1371 29.3448 73.9622 29.0418H77.4106C77.2357 29.3448 76.9845 29.5967 76.682 29.7726C76.3795 29.9485 76.0363 30.0421 75.6864 30.0442ZM81.7011 27.0368H69.6717V26.0344C69.6717 25.7685 69.7773 25.5135 69.9653 25.3255C70.1533 25.1375 70.4082 25.0319 70.6741 25.0319H80.6987C80.9645 25.0319 81.2195 25.1375 81.4075 25.3255C81.5955 25.5135 81.7011 25.7685 81.7011 26.0344V27.0368Z" fill="#1B1D23"/>
</g>
<defs>
<filter id="filter0_di_0_4" x="0" y="0" width="48" height="48" filterUnits="userSpaceOnUse" color-interpolation-filters="sRGB">
<feFlood flood-opacity="0" result="BackgroundImageFix"/>
<feColorMatrix in="SourceAlpha" type="matrix" values="0 0 0 0 0 0 0 0 0 0 0 0 0 0 0 0 0 0 127 0" result="hardAlpha"/>
<feOffset dy="2"/>
<feGaussianBlur stdDeviation="2"/>
<feComposite in2="hardAlpha" operator="out"/>
<feColorMatrix type="matrix" values="0 0 0 0 0.941176 0 0 0 0 0.945098 0 0 0 0 0.952941 0 0 0 1 0"/>
<feBlend mode="normal" in2="BackgroundImageFix" result="effect1_dropShadow_0_4"/>
<feBlend mode="normal" in="SourceGraphic" in2="effect1_dropShadow_0_4" result="shape"/>
<feColorMatrix in="SourceAlpha" type="matrix" values="0 0 0 0 0 0 0 0 0 0 0 0 0 0 0 0 0 0 127 0" result="hardAlpha"/>
<feOffset dy="-8"/>
<feGaussianBlur stdDeviation="1"/>
<feComposite in2="hardAlpha" operator="arithmetic" k2="-1" k3="1"/>
<feColorMatrix type="matrix" values="0 0 0 0 0.941176 0 0 0 0 0.945098 0 0 0 0 0.952941 0 0 0 1 0"/>
<feBlend mode="normal" in2="shape" result="effect2_innerShadow_0_4"/>
</filter>
<filter id="filter1_di_0_4" x="52" y="0" width="48" height="48" filterUnits="userSpaceOnUse" color-interpolation-filters="sRGB">
<feFlood flood-opacity="0" result="BackgroundImageFix"/>
<feColorMatrix in="SourceAlpha" type="matrix" values="0 0 0 0 0 0 0 0 0 0 0 0 0 0 0 0 0 0 127 0" result="hardAlpha"/>
<feOffset dy="2"/>
<feGaussianBlur stdDeviation="2"/>
<feComposite in2="hardAlpha" operator="out"/>
<feColorMatrix type="matrix" values="0 0 0 0 0.941176 0 0 0 0 0.945098 0 0 0 0 0.952941 0 0 0 1 0"/>
<feBlend mode="normal" in2="BackgroundImageFix" result="effect1_dropShadow_0_4"/>
<feBlend mode="normal" in="SourceGraphic" in2="effect1_dropShadow_0_4" result="shape"/>
<feColorMatrix in="SourceAlpha" type="matrix" values="0 0 0 0 0 0 0 0 0 0 0 0 0 0 0 0 0 0 127 0" result="hardAlpha"/>
<feOffset dy="-8"/>
<feGaussianBlur stdDeviation="1"/>
<feComposite in2="hardAlpha" operator="arithmetic" k2="-1" k3="1"/>
<feColorMatrix type="matrix" values="0 0 0 0 0.941176 0 0 0 0 0.945098 0 0 0 0 0.952941 0 0 0 1 0"/>
<feBlend mode="normal" in2="shape" result="effect2_innerShadow_0_4"/>
</filter>
</defs>
</svg>
