<svg width="20" height="20" viewBox="0 0 20 20" fill="none" xmlns="http://www.w3.org/2000/svg">
<path d="M17.5 9.16671H14.2167C14.1586 9.15882 14.0998 9.15882 14.0417 9.16671H13.9C13.8565 9.19156 13.8147 9.2194 13.775 9.25004C13.7286 9.28068 13.6841 9.31407 13.6417 9.35004C13.6139 9.38411 13.5888 9.42034 13.5667 9.45837C13.5285 9.51087 13.495 9.56664 13.4667 9.62504L12.1334 13.3L8.65835 3.88337C8.59996 3.7225 8.49346 3.5835 8.35331 3.48527C8.21316 3.38704 8.04616 3.33435 7.87502 3.33435C7.70388 3.33435 7.53688 3.38704 7.39673 3.48527C7.25658 3.5835 7.15008 3.7225 7.09169 3.88337L5.16669 9.16671H2.50002C2.27901 9.16671 2.06704 9.2545 1.91076 9.41078C1.75448 9.56706 1.66669 9.77902 1.66669 10C1.66669 10.2211 1.75448 10.433 1.91076 10.5893C2.06704 10.7456 2.27901 10.8334 2.50002 10.8334H5.76669H5.95835H6.08335C6.13072 10.8106 6.17543 10.7826 6.21669 10.75C6.26309 10.7194 6.30761 10.686 6.35002 10.65L6.42502 10.5417C6.46474 10.4902 6.4983 10.4343 6.52502 10.375L7.87502 6.60004L11.3417 16.1167C11.3999 16.2778 11.5064 16.417 11.6465 16.5154C11.7867 16.6138 11.9538 16.6666 12.125 16.6667C12.2963 16.6666 12.4634 16.6138 12.6035 16.5154C12.7437 16.417 12.8501 16.2778 12.9084 16.1167L14.825 10.8334H17.5C17.721 10.8334 17.933 10.7456 18.0893 10.5893C18.2456 10.433 18.3334 10.2211 18.3334 10C18.3334 9.77902 18.2456 9.56706 18.0893 9.41078C17.933 9.2545 17.721 9.16671 17.5 9.16671Z" fill="#3D4350"/>
</svg>