<svg width="20" height="20" viewBox="0 0 20 20" fill="none" xmlns="http://www.w3.org/2000/svg">
<path d="M10.1105 2.65677L11.3754 3.04566C11.3926 3.05029 11.4077 3.06038 11.4185 3.07438C11.4294 3.08839 11.4354 3.10555 11.4356 3.12328C11.4359 3.141 11.4304 3.15832 11.4199 3.17261C11.4094 3.1869 11.3945 3.19738 11.3775 3.20247L10.1126 3.59554C10.0998 3.59943 10.0881 3.60643 10.0786 3.61591C10.0691 3.6254 10.0621 3.63707 10.0583 3.6499L9.66938 4.91484C9.66473 4.93194 9.65463 4.94708 9.64064 4.95795C9.62665 4.96878 9.60947 4.97479 9.59173 4.97505C9.57403 4.97526 9.55672 4.96972 9.54243 4.95923C9.52814 4.94874 9.51765 4.9339 9.51254 4.91693L9.11949 3.65199C9.11561 3.63916 9.10861 3.62748 9.0991 3.618C9.08964 3.60852 9.07795 3.60152 9.06512 3.59763L7.80017 3.20874C7.78307 3.20411 7.76793 3.19402 7.7571 3.18002C7.74622 3.16601 7.74021 3.14885 7.74 3.13113C7.73974 3.1134 7.74529 3.09609 7.75578 3.0818C7.76627 3.06751 7.78111 3.05702 7.79808 3.05193L9.06303 2.65886C9.07586 2.65497 9.08755 2.64798 9.09701 2.63849C9.10648 2.62901 9.11352 2.61734 9.1174 2.6045L9.50627 1.33957C9.51092 1.32247 9.52098 1.30733 9.53501 1.29647C9.549 1.2856 9.56618 1.2796 9.58388 1.27937C9.60162 1.27913 9.61893 1.28467 9.63322 1.29516C9.6475 1.30565 9.65799 1.3205 9.66307 1.33748L10.0562 2.60241C10.06 2.61525 10.067 2.62692 10.0765 2.6364C10.086 2.64589 10.0977 2.65288 10.1105 2.65677Z" fill="#1B1D23" stroke="#1B1D23" stroke-width="0.0613689" stroke-linecap="round" stroke-linejoin="round"/>
<path d="M6.65021 6.64597L8.64692 7.20423C8.67584 7.21241 8.70125 7.22981 8.71937 7.25378C8.7375 7.27774 8.74731 7.30696 8.74731 7.33698C8.74731 7.36704 8.7375 7.39625 8.71937 7.42022C8.70125 7.44418 8.67584 7.46158 8.64692 7.46977L6.64812 8.01962C6.62517 8.02597 6.60424 8.03821 6.58739 8.05506C6.57051 8.0719 6.55831 8.09284 6.55195 8.11582L5.9937 10.1125C5.98552 10.1414 5.96812 10.1669 5.94415 10.185C5.92019 10.2031 5.89097 10.2129 5.86095 10.2129C5.83089 10.2129 5.80168 10.2031 5.77771 10.185C5.75379 10.1669 5.73639 10.1414 5.7282 10.1125L5.17831 8.11374C5.17195 8.09075 5.15976 8.06981 5.14287 8.05297C5.12603 8.03608 5.10509 8.02389 5.08215 8.01753L3.08542 7.45928C3.05652 7.45109 3.03108 7.43369 3.01297 7.40977C2.99485 7.3858 2.98505 7.35659 2.98505 7.32653C2.98505 7.29651 2.99485 7.2673 3.01297 7.24333C3.03108 7.21936 3.05652 7.20197 3.08542 7.19378L5.08424 6.64388C5.10718 6.63753 5.12812 6.62533 5.14496 6.60849C5.16185 6.5916 5.17404 6.57067 5.1804 6.54772L5.73865 4.55101C5.74684 4.52209 5.76424 4.49668 5.7882 4.47855C5.81212 4.46043 5.84138 4.45062 5.8714 4.45062C5.90142 4.45062 5.93068 4.46043 5.95464 4.47855C5.97856 4.49668 5.99596 4.52209 6.00415 4.55101L6.55404 6.54981C6.5604 6.57276 6.57259 6.59369 6.58948 6.61058C6.60633 6.62742 6.62726 6.63962 6.65021 6.64597Z" fill="#1B1D23" stroke="#1B1D23" stroke-width="0.0613689" stroke-linecap="round" stroke-linejoin="round"/>
<path d="M16.4958 12.3664C17.2422 12.4584 17.2213 13.0417 16.4979 13.1044C14.7813 13.255 12.7449 13.487 12.0341 15.352C11.7204 16.1702 11.5114 17.194 11.4068 18.4234C11.4041 18.4582 11.3949 18.4915 11.3798 18.5211C11.3646 18.5506 11.3439 18.5758 11.319 18.5949C10.8737 18.9356 10.7126 18.5154 10.6688 18.1495C10.2004 14.1728 9.15085 13.5142 5.31631 13.0542C5.28322 13.0503 5.25162 13.0391 5.22403 13.0213C5.19644 13.0035 5.17362 12.9797 5.15742 12.9518C4.96369 12.6089 5.08842 12.411 5.53166 12.358C9.58156 11.875 10.0666 11.2081 10.6688 7.22092C10.7538 6.66758 10.9705 6.57069 11.319 6.93031C11.365 6.97623 11.3945 7.04046 11.4026 7.11223C11.9086 11.0262 12.5086 11.8813 16.4958 12.3664Z" fill="#1B1D23" stroke="#1B1D23" stroke-width="0.0613689" stroke-linecap="round" stroke-linejoin="round"/>
</svg>
