<svg width="20" height="20" viewBox="0 0 20 20" fill="none" xmlns="http://www.w3.org/2000/svg">
<path d="M10 12.5C11.3807 12.5 12.5 11.3807 12.5 10C12.5 8.61929 11.3807 7.5 10 7.5C8.61929 7.5 7.5 8.61929 7.5 10C7.5 11.3807 8.61929 12.5 10 12.5Z" stroke="#737373" stroke-width="1.3325" stroke-linecap="round" stroke-linejoin="round"/>
<path d="M18.0555 10.3945V9.60558C18.0555 9.03892 17.63 8.56336 17.0666 8.50114L15.8511 8.36558L15.2922 7.01669L16.0566 6.06225C16.41 5.62003 16.3755 4.98336 15.9744 4.58225L15.4166 4.02447C15.0166 3.62447 14.3789 3.58892 13.9366 3.94225L12.9822 4.70669L11.6333 4.1478L11.4978 2.93225C11.4355 2.37003 10.96 1.94336 10.3933 1.94336H9.60442C9.03776 1.94336 8.5622 2.36891 8.49998 2.93225L8.36442 4.1478L7.01553 4.70669L6.06109 3.94336C5.61887 3.59003 4.9822 3.62447 4.58109 4.02558L4.02331 4.58336C3.62331 4.98336 3.58776 5.62114 3.94109 6.06336L4.70553 7.0178L4.14664 8.36669L2.93109 8.50225C2.36887 8.56447 1.9422 9.04003 1.9422 9.60669V10.3956C1.9422 10.9622 2.36776 11.4378 2.93109 11.5L4.14664 11.6356L4.70553 12.9845L3.9422 13.9389C3.58887 14.3811 3.62331 15.0189 4.02442 15.4189L4.5822 15.9767C4.9822 16.3767 5.61998 16.4122 6.0622 16.0589L7.01664 15.2945L8.36553 15.8534L8.50109 17.0689C8.56331 17.6311 9.03887 18.0578 9.60553 18.0578H10.3944C10.9611 18.0578 11.4366 17.6323 11.4989 17.0689L11.6344 15.8534L12.9833 15.2945L13.9378 16.0589C14.38 16.4122 15.0166 16.3778 15.4178 15.9767L15.9755 15.4189C16.3755 15.0189 16.4111 14.3811 16.0578 13.9389L15.2944 12.9845L15.8533 11.6356L17.0689 11.5C17.6311 11.4378 18.0578 10.9622 18.0578 10.3956L18.0555 10.3945Z" stroke="#737373" stroke-width="1.3325" stroke-linecap="round" stroke-linejoin="round"/>
</svg>
