<svg width="36" height="36" viewBox="0 0 36 36" fill="none" xmlns="http://www.w3.org/2000/svg">
<g filter="url(#filter0_ii_0_67)">
<mask id="path-1-inside-1_0_67" fill="white">
<path d="M0 8C0 3.58172 3.58172 0 8 0H28C32.4183 0 36 3.58172 36 8V28C36 32.4183 32.4183 36 28 36H8C3.58172 36 0 32.4183 0 28V8Z"/>
</mask>
<path d="M0 8C0 3.58172 3.58172 0 8 0H28C32.4183 0 36 3.58172 36 8V28C36 32.4183 32.4183 36 28 36H8C3.58172 36 0 32.4183 0 28V8Z" fill="#316AFE"/>
<path d="M8 0V1H28V0V-1H8V0ZM36 8H35V28H36H37V8H36ZM28 36V35H8V36V37H28V36ZM0 28H1V8H0H-1V28H0ZM8 36V35C4.13401 35 1 31.866 1 28H0H-1C-1 32.9706 3.02944 37 8 37V36ZM36 28H35C35 31.866 31.866 35 28 35V36V37C32.9706 37 37 32.9706 37 28H36ZM28 0V1C31.866 1 35 4.13401 35 8H36H37C37 3.02944 32.9706 -1 28 -1V0ZM8 0V-1C3.02944 -1 -1 3.02944 -1 8H0H1C1 4.13401 4.13401 1 8 1V0Z" fill="#316AFE" mask="url(#path-1-inside-1_0_67)"/>
<path d="M23.7104 18.1127L30.2195 17.4026C29.7329 14.8253 28.464 12.7805 26.4126 11.2683C24.3744 9.7561 21.5801 9 18.0297 9C15.6102 9 13.4734 9.38134 11.6193 10.144C9.77832 10.8935 8.33844 11.9587 7.29961 13.3394C6.27394 14.7069 5.76768 16.3244 5.78083 18.1916C5.76768 20.4007 6.45804 22.2285 7.8519 23.675C9.24576 25.1083 11.3957 26.1274 14.3018 26.7323L15.577 27H30.01C29.681 26.3945 29.2577 25.845 28.7401 25.3516C27.3463 24.0103 25.216 23.0307 22.3494 22.4126L17.1816 21.3081C15.6431 20.953 14.5385 20.4994 13.8679 19.9471C13.2104 19.3948 12.8882 18.6781 12.9014 17.7971C12.8882 16.7714 13.3813 15.9364 14.3807 15.2921C15.3932 14.6478 16.6424 14.3256 18.1283 14.3256C19.2329 14.3256 20.1665 14.5031 20.9292 14.8582C21.6919 15.2132 22.2968 15.68 22.7439 16.2586C23.2041 16.8372 23.5263 17.4552 23.7104 18.1127Z" fill="white"/>
</g>
<defs>
<filter id="filter0_ii_0_67" x="0" y="-2" width="36" height="40" filterUnits="userSpaceOnUse" color-interpolation-filters="sRGB">
<feFlood flood-opacity="0" result="BackgroundImageFix"/>
<feBlend mode="normal" in="SourceGraphic" in2="BackgroundImageFix" result="shape"/>
<feColorMatrix in="SourceAlpha" type="matrix" values="0 0 0 0 0 0 0 0 0 0 0 0 0 0 0 0 0 0 127 0" result="hardAlpha"/>
<feOffset dy="2"/>
<feGaussianBlur stdDeviation="1"/>
<feComposite in2="hardAlpha" operator="arithmetic" k2="-1" k3="1"/>
<feColorMatrix type="matrix" values="0 0 0 0 0.99834 0 0 0 0 0.99834 0 0 0 0 0.99834 0 0 0 0.24 0"/>
<feBlend mode="normal" in2="shape" result="effect1_innerShadow_0_67"/>
<feColorMatrix in="SourceAlpha" type="matrix" values="0 0 0 0 0 0 0 0 0 0 0 0 0 0 0 0 0 0 127 0" result="hardAlpha"/>
<feOffset dy="-2"/>
<feGaussianBlur stdDeviation="1"/>
<feComposite in2="hardAlpha" operator="arithmetic" k2="-1" k3="1"/>
<feColorMatrix type="matrix" values="0 0 0 0 1 0 0 0 0 1 0 0 0 0 1 0 0 0 0.24 0"/>
<feBlend mode="normal" in2="effect1_innerShadow_0_67" result="effect2_innerShadow_0_67"/>
</filter>
</defs>
</svg>
