<svg width="20" height="20" viewBox="0 0 20 20" fill="none" xmlns="http://www.w3.org/2000/svg">
<path d="M12.6331 9.44852L8.40457 5.22131C8.33512 5.15118 8.25249 5.09552 8.16145 5.05754C8.07042 5.01956 7.97277 5 7.87414 5C7.77552 5 7.67787 5.01956 7.58683 5.05754C7.49579 5.09552 7.41316 5.15118 7.34371 5.22131C7.20457 5.36149 7.12646 5.55112 7.12646 5.74878C7.12646 5.94643 7.20457 6.13606 7.34371 6.27624L11.0418 10.0171L7.34371 13.7206C7.20457 13.8608 7.12646 14.0504 7.12646 14.2481C7.12646 14.4457 7.20457 14.6354 7.34371 14.7755C7.4129 14.8462 7.49541 14.9025 7.58647 14.941C7.67752 14.9795 7.7753 14.9996 7.87414 15C7.97299 14.9996 8.07077 14.9795 8.16182 14.941C8.25287 14.9025 8.33538 14.8462 8.40457 14.7755L12.6331 10.5483C12.7089 10.4783 12.7694 10.3932 12.8108 10.2986C12.8522 10.204 12.8736 10.1018 12.8736 9.99843C12.8736 9.8951 12.8522 9.7929 12.8108 9.69826C12.7694 9.60361 12.7089 9.51858 12.6331 9.44852Z" fill="#858D9D"/>
</svg>
