<svg width="20" height="20" viewBox="0 0 20 20" fill="none" xmlns="http://www.w3.org/2000/svg">
<path d="M15.8333 9.16658H10.8333V4.16659C10.8333 3.94557 10.7455 3.73361 10.5892 3.57733C10.4329 3.42105 10.2209 3.33325 9.99992 3.33325C9.7789 3.33325 9.56694 3.42105 9.41066 3.57733C9.25438 3.73361 9.16658 3.94557 9.16658 4.16659V9.16658H4.16659C3.94557 9.16658 3.73361 9.25438 3.57733 9.41066C3.42105 9.56694 3.33325 9.7789 3.33325 9.99992C3.33325 10.2209 3.42105 10.4329 3.57733 10.5892C3.73361 10.7455 3.94557 10.8333 4.16659 10.8333H9.16658V15.8333C9.16658 16.0543 9.25438 16.2662 9.41066 16.4225C9.56694 16.5788 9.7789 16.6666 9.99992 16.6666C10.2209 16.6666 10.4329 16.5788 10.5892 16.4225C10.7455 16.2662 10.8333 16.0543 10.8333 15.8333V10.8333H15.8333C16.0543 10.8333 16.2662 10.7455 16.4225 10.5892C16.5788 10.4329 16.6666 10.2209 16.6666 9.99992C16.6666 9.7789 16.5788 9.56694 16.4225 9.41066C16.2662 9.25438 16.0543 9.16658 15.8333 9.16658Z" fill="white"/>
</svg>
